# xmcd CD database file
#
# Track frame offsets:
#	150
#	21277
#	42567
#	63640
#
# Disc length: 1129 seconds
#
# Revision: 0
# Processed by: cddbd v1.5.1PL0 Copyright (c) Steve Scherf et al.
# Submitted via: CDex 1.51
#
DISCID=35046704
DTITLE=手塚国光 - White Message
DYEAR=1900
DGENRE=Pop
TTITLE0=White Message
TTITLE1=想詩〜ウムクトゥ〜
TTITLE2=White Messege（Original Karaoke）
TTITLE3=想詩〜ウムクトゥ〜（Original Karaoke）
EXTD=
EXTT0=
EXTT1=
EXTT2=
EXTT3=
PLAYORDER=
